<svg width="10" height="10" viewBox="0 0 10 10" fill="none" xmlns="http://www.w3.org/2000/svg">
<g clip-path="url(#clip0_306_210)">
<path d="M5.00016 7.91675C5.08257 7.91675 5.16313 7.89231 5.23165 7.84653C5.30017 7.80074 5.35358 7.73567 5.38511 7.65953C5.41665 7.5834 5.4249 7.49962 5.40882 7.41879C5.39275 7.33797 5.35306 7.26373 5.29479 7.20545C5.23652 7.14718 5.16228 7.1075 5.08145 7.09142C5.00062 7.07534 4.91685 7.0836 4.84071 7.11513C4.76458 7.14667 4.6995 7.20007 4.65372 7.26859C4.60793 7.33711 4.5835 7.41767 4.5835 7.50008C4.5835 7.61059 4.62739 7.71657 4.70553 7.79471C4.78368 7.87285 4.88966 7.91675 5.00016 7.91675ZM7.0835 7.91675C7.1659 7.91675 7.24646 7.89231 7.31498 7.84653C7.3835 7.80074 7.43691 7.73567 7.46845 7.65953C7.49998 7.5834 7.50823 7.49962 7.49216 7.41879C7.47608 7.33797 7.4364 7.26373 7.37812 7.20545C7.31985 7.14718 7.24561 7.1075 7.16478 7.09142C7.08396 7.07534 7.00018 7.0836 6.92404 7.11513C6.84791 7.14667 6.78283 7.20007 6.73705 7.26859C6.69127 7.33711 6.66683 7.41767 6.66683 7.50008C6.66683 7.61059 6.71073 7.71657 6.78887 7.79471C6.86701 7.87285 6.97299 7.91675 7.0835 7.91675ZM7.0835 6.25008C7.1659 6.25008 7.24646 6.22564 7.31498 6.17986C7.3835 6.13408 7.43691 6.069 7.46845 5.99287C7.49998 5.91673 7.50823 5.83295 7.49216 5.75213C7.47608 5.6713 7.4364 5.59706 7.37812 5.53879C7.31985 5.48052 7.24561 5.44083 7.16478 5.42475C7.08396 5.40868 7.00018 5.41693 6.92404 5.44847C6.84791 5.48 6.78283 5.53341 6.73705 5.60193C6.69127 5.67045 6.66683 5.75101 6.66683 5.83341C6.66683 5.94392 6.71073 6.0499 6.78887 6.12804C6.86701 6.20618 6.97299 6.25008 7.0835 6.25008ZM5.00016 6.25008C5.08257 6.25008 5.16313 6.22564 5.23165 6.17986C5.30017 6.13408 5.35358 6.069 5.38511 5.99287C5.41665 5.91673 5.4249 5.83295 5.40882 5.75213C5.39275 5.6713 5.35306 5.59706 5.29479 5.53879C5.23652 5.48052 5.16228 5.44083 5.08145 5.42475C5.00062 5.40868 4.91685 5.41693 4.84071 5.44847C4.76458 5.48 4.6995 5.53341 4.65372 5.60193C4.60793 5.67045 4.5835 5.75101 4.5835 5.83341C4.5835 5.94392 4.62739 6.0499 4.70553 6.12804C4.78368 6.20618 4.88966 6.25008 5.00016 6.25008ZM7.91683 1.25008H7.50016V0.833415C7.50016 0.722908 7.45626 0.616927 7.37812 0.538787C7.29998 0.460647 7.194 0.416748 7.0835 0.416748C6.97299 0.416748 6.86701 0.460647 6.78887 0.538787C6.71073 0.616927 6.66683 0.722908 6.66683 0.833415V1.25008H3.3335V0.833415C3.3335 0.722908 3.2896 0.616927 3.21146 0.538787C3.13332 0.460647 3.02734 0.416748 2.91683 0.416748C2.80632 0.416748 2.70034 0.460647 2.6222 0.538787C2.54406 0.616927 2.50016 0.722908 2.50016 0.833415V1.25008H2.0835C1.75198 1.25008 1.43403 1.38178 1.19961 1.6162C0.965192 1.85062 0.833496 2.16856 0.833496 2.50008V8.33342C0.833496 8.66494 0.965192 8.98288 1.19961 9.2173C1.43403 9.45172 1.75198 9.58342 2.0835 9.58342H7.91683C8.24835 9.58342 8.56629 9.45172 8.80071 9.2173C9.03513 8.98288 9.16683 8.66494 9.16683 8.33342V2.50008C9.16683 2.16856 9.03513 1.85062 8.80071 1.6162C8.56629 1.38178 8.24835 1.25008 7.91683 1.25008ZM8.3335 8.33342C8.3335 8.44392 8.2896 8.5499 8.21146 8.62804C8.13332 8.70618 8.02734 8.75008 7.91683 8.75008H2.0835C1.97299 8.75008 1.86701 8.70618 1.78887 8.62804C1.71073 8.5499 1.66683 8.44392 1.66683 8.33342V4.58341H8.3335V8.33342ZM8.3335 3.75008H1.66683V2.50008C1.66683 2.38957 1.71073 2.28359 1.78887 2.20545C1.86701 2.12731 1.97299 2.08341 2.0835 2.08341H2.50016V2.50008C2.50016 2.61059 2.54406 2.71657 2.6222 2.79471C2.70034 2.87285 2.80632 2.91675 2.91683 2.91675C3.02734 2.91675 3.13332 2.87285 3.21146 2.79471C3.2896 2.71657 3.3335 2.61059 3.3335 2.50008V2.08341H6.66683V2.50008C6.66683 2.61059 6.71073 2.71657 6.78887 2.79471C6.86701 2.87285 6.97299 2.91675 7.0835 2.91675C7.194 2.91675 7.29998 2.87285 7.37812 2.79471C7.45626 2.71657 7.50016 2.61059 7.50016 2.50008V2.08341H7.91683C8.02734 2.08341 8.13332 2.12731 8.21146 2.20545C8.2896 2.28359 8.3335 2.38957 8.3335 2.50008V3.75008ZM2.91683 6.25008C2.99924 6.25008 3.0798 6.22564 3.14832 6.17986C3.21684 6.13408 3.27024 6.069 3.30178 5.99287C3.33332 5.91673 3.34157 5.83295 3.32549 5.75213C3.30941 5.6713 3.26973 5.59706 3.21146 5.53879C3.15319 5.48052 3.07894 5.44083 2.99812 5.42475C2.91729 5.40868 2.83351 5.41693 2.75738 5.44847C2.68124 5.48 2.61617 5.53341 2.57038 5.60193C2.5246 5.67045 2.50016 5.75101 2.50016 5.83341C2.50016 5.94392 2.54406 6.0499 2.6222 6.12804C2.70034 6.20618 2.80632 6.25008 2.91683 6.25008ZM2.91683 7.91675C2.99924 7.91675 3.0798 7.89231 3.14832 7.84653C3.21684 7.80074 3.27024 7.73567 3.30178 7.65953C3.33332 7.5834 3.34157 7.49962 3.32549 7.41879C3.30941 7.33797 3.26973 7.26373 3.21146 7.20545C3.15319 7.14718 3.07894 7.1075 2.99812 7.09142C2.91729 7.07534 2.83351 7.0836 2.75738 7.11513C2.68124 7.14667 2.61617 7.20007 2.57038 7.26859C2.5246 7.33711 2.50016 7.41767 2.50016 7.50008C2.50016 7.61059 2.54406 7.71657 2.6222 7.79471C2.70034 7.87285 2.80632 7.91675 2.91683 7.91675Z" fill="#45AAFF"/>
</g>
<defs>
<clipPath id="clip0_306_210">
<rect width="10" height="10" fill="white"/>
</clipPath>
</defs>
</svg>
