<svg width="10" height="10" viewBox="0 0 10 10" fill="none" xmlns="http://www.w3.org/2000/svg">
<g clip-path="url(#clip0_387_12)">
<path d="M2.0835 1.25L0.833496 2.5M9.16683 2.5L7.91683 1.25M2.50016 7.91667L1.66683 8.75M7.50016 7.91667L8.3335 8.75M5.00016 3.75V5.41667L5.8335 6.25M5.00016 8.75C5.8842 8.75 6.73208 8.39879 7.3572 7.77371C7.98229 7.14858 8.3335 6.30071 8.3335 5.41667C8.3335 4.53262 7.98229 3.68477 7.3572 3.05965C6.73208 2.43452 5.8842 2.08333 5.00016 2.08333C4.11611 2.08333 3.26826 2.43452 2.64314 3.05965C2.01802 3.68477 1.66683 4.53262 1.66683 5.41667C1.66683 6.30071 2.01802 7.14858 2.64314 7.77371C3.26826 8.39879 4.11611 8.75 5.00016 8.75Z" stroke="#45AAFF" stroke-linecap="round" stroke-linejoin="round"/>
</g>
<defs>
<clipPath id="clip0_387_12">
<rect width="10" height="10" fill="white"/>
</clipPath>
</defs>
</svg>
