<svg width="20" height="20" viewBox="0 0 20 20" fill="none" xmlns="http://www.w3.org/2000/svg">
<path d="M4.1665 2.5L1.6665 5M18.3332 5L15.8332 2.5M4.99984 15.8333L3.33317 17.5M14.9998 15.8333L16.6665 17.5M7.49984 11.25L9.1665 12.9167L12.9165 9.16667M9.99984 17.5C11.7679 17.5 13.4637 16.7976 14.7139 15.5474C15.9641 14.2972 16.6665 12.6014 16.6665 10.8333C16.6665 9.06525 15.9641 7.36953 14.7139 6.11929C13.4637 4.86904 11.7679 4.16667 9.99984 4.16667C8.23173 4.16667 6.53604 4.86904 5.2858 6.11929C4.03555 7.36953 3.33317 9.06525 3.33317 10.8333C3.33317 12.6014 4.03555 14.2972 5.2858 15.5474C6.53604 16.7976 8.23173 17.5 9.99984 17.5Z" stroke="white" stroke-linecap="round" stroke-linejoin="round"/>
</svg>
