<svg width="10" height="10" viewBox="0 0 10 10" fill="none" xmlns="http://www.w3.org/2000/svg">
<g clip-path="url(#clip0_306_214)">
<path d="M5.00016 0.833252C4.17608 0.833252 3.37049 1.07762 2.68529 1.53546C2.00008 1.9933 1.46603 2.64405 1.15067 3.4054C0.835301 4.16676 0.752788 5.00454 0.913559 5.8128C1.07433 6.62105 1.47117 7.36348 2.05389 7.9462C2.63661 8.52892 3.37903 8.92575 4.18729 9.08652C4.99554 9.2473 5.83332 9.16478 6.59468 8.84942C7.35604 8.53405 8.00678 8 8.46462 7.31479C8.92246 6.62959 9.16683 5.82401 9.16683 4.99992C9.16557 3.89524 8.72617 2.83616 7.94505 2.05504C7.16392 1.27391 6.10485 0.834516 5.00016 0.833252ZM5.00016 8.33325C4.34089 8.33325 3.69643 8.13776 3.14826 7.77148C2.6001 7.40521 2.17286 6.88462 1.92057 6.27553C1.66827 5.66644 1.60226 4.99622 1.73088 4.34962C1.8595 3.70301 2.17697 3.10907 2.64314 2.6429C3.10932 2.17672 3.70326 1.85925 4.34986 1.73063C4.99647 1.60202 5.66669 1.66803 6.27578 1.92032C6.88486 2.17261 7.40546 2.59985 7.77173 3.14802C8.138 3.69618 8.3335 4.34065 8.3335 4.99992C8.33249 5.88366 7.98097 6.73092 7.35607 7.35582C6.73117 7.98073 5.88391 8.33224 5.00016 8.33325ZM5.00016 2.49992C4.94544 2.4999 4.89126 2.51067 4.8407 2.53161C4.79014 2.55254 4.7442 2.58323 4.70551 2.62193C4.66681 2.66062 4.63612 2.70656 4.61519 2.75712C4.59425 2.80768 4.58348 2.86186 4.5835 2.91659V4.89534L4.00773 5.96936C3.95555 6.06681 3.94422 6.181 3.97624 6.2868C4.00825 6.3926 4.08098 6.48135 4.17843 6.53353C4.27588 6.58571 4.39006 6.59704 4.49586 6.56503C4.60167 6.53302 4.69042 6.46028 4.7426 6.36284L5.3676 5.19666C5.39987 5.1361 5.41677 5.06854 5.41683 4.99992V2.91659C5.41685 2.86186 5.40608 2.80768 5.38514 2.75712C5.36421 2.70656 5.33352 2.66062 5.29482 2.62193C5.25613 2.58323 5.21019 2.55254 5.15963 2.53161C5.10907 2.51067 5.05489 2.4999 5.00016 2.49992Z" fill="#45AAFF"/>
</g>
<defs>
<clipPath id="clip0_306_214">
<rect width="10" height="10" fill="white"/>
</clipPath>
</defs>
</svg>
