<svg width="14" height="14" viewBox="0 0 14 14" fill="none" xmlns="http://www.w3.org/2000/svg">
<path d="M12.8332 12.25V11.0833C12.8332 9.99612 12.0895 9.08256 11.0832 8.8235M9.0415 1.91961C9.89661 2.26575 10.4998 3.1041 10.4998 4.08333C10.4998 5.06257 9.89661 5.90094 9.0415 6.24703M9.9165 12.25C9.9165 11.1628 9.9165 10.6192 9.73888 10.1904C9.50205 9.6187 9.0478 9.16446 8.47608 8.92762C8.04727 8.75 7.50372 8.75 6.4165 8.75H4.6665C3.5793 8.75 3.03571 8.75 2.60691 8.92762C2.03517 9.16446 1.58094 9.6187 1.34412 10.1904C1.1665 10.6192 1.1665 11.1628 1.1665 12.25M7.87484 4.08333C7.87484 5.372 6.83015 6.41667 5.5415 6.41667C4.25284 6.41667 3.20817 5.372 3.20817 4.08333C3.20817 2.79467 4.25284 1.75 5.5415 1.75C6.83015 1.75 7.87484 2.79467 7.87484 4.08333Z" stroke="#E0E0E0" stroke-linecap="round" stroke-linejoin="round"/>
</svg>
