<svg width="18" height="18" viewBox="0 0 18 18" fill="none" xmlns="http://www.w3.org/2000/svg">
<path d="M8.46202 2.58993C8.63482 2.23973 8.7213 2.06462 8.8386 2.00867C8.94067 1.96 9.05932 1.96 9.1614 2.00867C9.27877 2.06462 9.36517 2.23973 9.53805 2.58993L11.1781 5.9124C11.2291 6.01579 11.2546 6.06749 11.2918 6.10763C11.3249 6.14316 11.3645 6.17195 11.4085 6.19241C11.4582 6.21551 11.5152 6.22385 11.6293 6.24052L15.2977 6.77672C15.6841 6.83318 15.8772 6.86141 15.9666 6.95577C16.0444 7.03786 16.0809 7.15067 16.0661 7.26277C16.0491 7.39163 15.9093 7.52784 15.6296 7.80024L12.976 10.3847C12.8934 10.4653 12.852 10.5056 12.8253 10.5536C12.8017 10.5959 12.7865 10.6426 12.7807 10.6908C12.7741 10.7453 12.7838 10.8022 12.8033 10.916L13.4295 14.5665C13.4955 14.9516 13.5285 15.1441 13.4665 15.2583C13.4125 15.3577 13.3165 15.4274 13.2053 15.4481C13.0774 15.4718 12.9046 15.3808 12.5588 15.199L9.2793 13.4743C9.17707 13.4206 9.126 13.3937 9.07215 13.3832C9.02452 13.3738 8.97547 13.3738 8.92785 13.3832C8.874 13.3937 8.82292 13.4206 8.72077 13.4743L5.44119 15.199C5.09544 15.3808 4.92256 15.4718 4.79473 15.4481C4.68351 15.4274 4.58754 15.3577 4.53355 15.2583C4.4715 15.1441 4.50452 14.9516 4.57055 14.5665L5.19667 10.916C5.21618 10.8022 5.22594 10.7453 5.21934 10.6908C5.21349 10.6426 5.19833 10.5959 5.17471 10.5536C5.14801 10.5056 5.10666 10.4653 5.02394 10.3847L2.37042 7.80024C2.09074 7.52784 1.9509 7.39163 1.93389 7.26277C1.91909 7.15067 1.95566 7.03786 2.03343 6.95577C2.12283 6.86141 2.31597 6.83318 2.70228 6.77672L6.37073 6.24052C6.48481 6.22385 6.54186 6.21551 6.59154 6.19241C6.63552 6.17195 6.67512 6.14316 6.70814 6.10763C6.74543 6.06749 6.77095 6.01579 6.82198 5.9124L8.46202 2.58993Z" stroke="#E0E0E0" stroke-linecap="round" stroke-linejoin="round"/>
</svg>
