<svg width="18" height="18" viewBox="0 0 18 18" fill="none" xmlns="http://www.w3.org/2000/svg">
<path d="M16.8605 3.8082C16.8385 3.71482 16.7929 3.62863 16.7281 3.55784C16.6633 3.48705 16.5815 3.43401 16.4904 3.40377L15.0701 2.93014L14.5959 1.50983C14.5656 1.41895 14.5125 1.33732 14.4418 1.2727C14.371 1.20807 14.285 1.16259 14.1917 1.14056C14.0985 1.11853 14.0011 1.12068 13.909 1.14682C13.8168 1.17295 13.7328 1.2222 13.665 1.28989L11.8577 3.0972C10.308 2.275 8.51467 2.0362 6.80381 2.42421C5.09295 2.81223 3.57813 3.80129 2.53474 5.21158C1.49136 6.62188 0.988688 8.35977 1.11812 10.1093C1.24756 11.8588 2.0005 13.5038 3.24006 14.7452C4.47963 15.9866 6.12351 16.742 7.87284 16.874C9.62217 17.006 11.3608 16.5059 12.7726 15.4646C14.1845 14.4233 15.1758 12.91 15.5663 11.1997C15.9569 9.48939 15.7207 7.69574 14.9008 6.14483L16.7104 4.33527C16.7783 4.26751 16.8277 4.18351 16.854 4.09126C16.8803 3.99901 16.8825 3.90157 16.8605 3.8082ZM8.43767 15.7501C7.49891 15.7538 6.57161 15.5438 5.72601 15.1361C4.8804 14.7283 4.13866 14.1336 3.55695 13.3967C2.97523 12.6599 2.5688 11.8004 2.36844 10.8833C2.16807 9.96613 2.17902 9.01542 2.40045 8.10314C2.62188 7.19086 3.048 6.34093 3.64652 5.6177C4.24504 4.89448 5.00029 4.31692 5.85506 3.92878C6.70983 3.54063 7.64171 3.35207 8.58014 3.37737C9.51857 3.40268 10.4389 3.64118 11.2715 4.07483C11.2749 4.08833 11.2749 4.10183 11.2794 4.11533L11.7294 5.4732L10.7912 6.41258C9.99086 5.81367 8.99338 5.54017 7.99952 5.64713C7.00567 5.7541 6.08923 6.23359 5.4347 6.98909C4.78016 7.74458 4.43612 8.71998 4.47184 9.71894C4.50755 10.7179 4.92037 11.6662 5.62719 12.3731C6.33401 13.0799 7.28235 13.4927 8.28131 13.5284C9.28027 13.5641 10.2557 13.2201 11.0112 12.5656C11.7667 11.911 12.2461 10.9946 12.3531 10.0007C12.4601 9.00687 12.1866 8.00939 11.5877 7.20908L12.5282 6.26858L13.886 6.71858C13.8979 6.72252 13.9108 6.72139 13.9232 6.72477C14.4168 7.66614 14.6585 8.71917 14.6249 9.78157C14.5913 10.844 14.2836 11.8796 13.7315 12.7879C13.1794 13.6963 12.4018 14.4464 11.4742 14.9654C10.5466 15.4844 9.50059 15.7547 8.43767 15.7501ZM11.2502 9.56258C11.252 10.1913 11.0438 10.8026 10.6586 11.2995C10.2733 11.7964 9.73313 12.1503 9.12376 12.3051C8.51439 12.4599 7.87078 12.4067 7.29511 12.1539C6.71943 11.9011 6.2447 11.4633 5.94629 10.9099C5.64788 10.3565 5.5429 9.71926 5.64801 9.09938C5.75311 8.47951 6.06229 7.91251 6.52644 7.48842C6.9906 7.06433 7.58312 6.80745 8.20995 6.75858C8.83677 6.7097 9.46195 6.87162 9.98623 7.21864L8.72511 8.47977C8.63157 8.45309 8.53492 8.4389 8.43767 8.43758C8.21516 8.43758 7.99766 8.50356 7.81265 8.62718C7.62765 8.75079 7.48345 8.92649 7.3983 9.13206C7.31316 9.33763 7.29088 9.56383 7.33429 9.78206C7.37769 10.0003 7.48484 10.2007 7.64217 10.3581C7.79951 10.5154 7.99996 10.6226 8.21819 10.666C8.43642 10.7094 8.66262 10.6871 8.86819 10.6019C9.07375 10.5168 9.24946 10.3726 9.37307 10.1876C9.49669 10.0026 9.56267 9.78508 9.56267 9.56258C9.56135 9.46532 9.54716 9.36867 9.52048 9.27514L10.7816 8.01402C11.087 8.47272 11.2501 9.01149 11.2502 9.56258ZM13.9102 5.54408L12.8201 5.18014L12.4567 4.08945L13.8163 2.72877L14.0919 3.55283C14.1195 3.6357 14.1659 3.71102 14.2276 3.77282C14.2893 3.83463 14.3646 3.88121 14.4474 3.90889L15.2709 4.18339L13.9102 5.54408Z" fill="white"/>
</svg>
