<svg width="21" height="22" viewBox="0 0 21 22" fill="none" xmlns="http://www.w3.org/2000/svg">
<path d="M3.78683 5.33659C4.59895 6.33226 5.61314 7.14423 6.76237 7.71885C7.91159 8.29346 9.16969 8.61763 10.4535 8.66992C10.2802 7.96326 10.2668 6.04326 11.6135 5.24326C12.1609 4.88339 12.7985 4.68472 13.4535 4.66992C13.8809 4.67089 14.3035 4.76022 14.6947 4.93231C15.0859 5.1044 15.4373 5.35553 15.7268 5.66992C16.4285 5.52057 17.103 5.26424 17.7268 4.90992C17.5078 5.62538 17.0332 6.23524 16.3935 6.62326C17.004 6.57043 17.6024 6.42195 18.1668 6.18326C17.742 6.8162 17.2041 7.36539 16.5802 7.80326C17.0535 12.0499 13.2468 17.3299 7.8335 17.3299C6.07772 17.3395 4.35136 16.8792 2.8335 15.9966C3.66104 16.0996 4.50087 16.0346 5.30272 15.8055C6.10457 15.5764 6.85196 15.1879 7.50016 14.6633C6.783 14.621 6.09164 14.3806 5.5031 13.9686C4.91457 13.5566 4.45196 12.9893 4.16683 12.3299C4.8335 12.5433 5.46683 12.6499 5.8335 12.3299C5.08448 12.1393 4.41649 11.7132 3.92799 11.1142C3.43948 10.5153 3.1563 9.7753 3.12016 9.00326C3.34042 9.21861 3.60102 9.38836 3.88703 9.50276C4.17304 9.61716 4.47882 9.67397 4.78683 9.66992C4.116 9.19735 3.64305 8.49395 3.45854 7.6944C3.27403 6.89485 3.39092 6.05533 3.78683 5.33659Z" stroke="#45AAFF" stroke-linecap="round" stroke-linejoin="round"/>
</svg>
