<svg width="18" height="18" viewBox="0 0 18 18" fill="none" xmlns="http://www.w3.org/2000/svg">
<path d="M14.25 2.9999H13.1625C13.0729 2.72638 12.933 2.47202 12.75 2.2499C12.5378 2.01263 12.2776 1.82308 11.9867 1.6938C11.6958 1.56451 11.3808 1.49842 11.0625 1.4999H6.9525C6.63165 1.49629 6.31374 1.56134 6.0201 1.6907C5.72647 1.82005 5.46389 2.01072 5.25 2.2499C5.06164 2.47081 4.9166 2.72526 4.8225 2.9999H3.75C3.15326 2.9999 2.58097 3.23695 2.15901 3.65891C1.73705 4.08087 1.5 4.65316 1.5 5.2499V14.2499C1.5 14.8466 1.73705 15.4189 2.15901 15.8409C2.58097 16.2628 3.15326 16.4999 3.75 16.4999H14.25C14.8467 16.4999 15.419 16.2628 15.841 15.8409C16.2629 15.4189 16.5 14.8466 16.5 14.2499V5.2499C16.5 4.65316 16.2629 4.08087 15.841 3.65891C15.419 3.23695 14.8467 2.9999 14.25 2.9999ZM6.39 3.2549C6.46028 3.1749 6.54679 3.11078 6.64378 3.06681C6.74077 3.02284 6.84601 3.00003 6.9525 2.9999H11.0475C11.154 3.00003 11.2592 3.02284 11.3562 3.06681C11.4532 3.11078 11.5397 3.1749 11.61 3.2549C11.6808 3.33365 11.7341 3.42649 11.7664 3.52732C11.7987 3.62815 11.8093 3.73468 11.7975 3.8399L11.4225 6.8399C11.4004 7.02283 11.3117 7.19122 11.1734 7.31295C11.0351 7.43468 10.8568 7.50123 10.6725 7.4999H9.4425L10.2975 5.6999C10.3668 5.52338 10.3667 5.32716 10.2972 5.15073C10.2276 4.97429 10.0938 4.83075 9.92273 4.749C9.75162 4.66724 9.55589 4.65335 9.37494 4.7101C9.19399 4.76686 9.04126 4.89006 8.9475 5.0549L7.7775 7.4999H7.3275C7.14324 7.50123 6.96494 7.43468 6.82661 7.31295C6.68828 7.19122 6.59961 7.02283 6.5775 6.8399L6.2025 3.8399C6.19069 3.73468 6.20129 3.62815 6.23361 3.52732C6.26592 3.42649 6.31922 3.33365 6.39 3.2549ZM15 14.2499C15 14.4488 14.921 14.6396 14.7803 14.7802C14.6397 14.9209 14.4489 14.9999 14.25 14.9999H3.75C3.55109 14.9999 3.36032 14.9209 3.21967 14.7802C3.07902 14.6396 3 14.4488 3 14.2499V5.2499C3 5.05099 3.07902 4.86022 3.21967 4.71957C3.36032 4.57892 3.55109 4.4999 3.75 4.4999H4.7775L5.0925 7.0274C5.16052 7.57484 5.42728 8.07821 5.8421 8.44186C6.25691 8.80552 6.79087 9.00411 7.3425 8.9999H10.6875C11.2391 9.00411 11.7731 8.80552 12.1879 8.44186C12.6027 8.07821 12.8695 7.57484 12.9375 7.0274L13.2225 4.4999H14.25C14.4489 4.4999 14.6397 4.57892 14.7803 4.71957C14.921 4.86022 15 5.05099 15 5.2499V14.2499ZM10.5 11.9999H7.5C7.30109 11.9999 7.11032 12.0789 6.96967 12.2196C6.82902 12.3602 6.75 12.551 6.75 12.7499C6.75 12.9488 6.82902 13.1396 6.96967 13.2802C7.11032 13.4209 7.30109 13.4999 7.5 13.4999H10.5C10.6989 13.4999 10.8897 13.4209 11.0303 13.2802C11.171 13.1396 11.25 12.9488 11.25 12.7499C11.25 12.551 11.171 12.3602 11.0303 12.2196C10.8897 12.0789 10.6989 11.9999 10.5 11.9999Z" fill="white"/>
</svg>
